<?xml version="1.0" encoding="utf-8"?>
<!-- Generator: Adobe Illustrator 28.0.0, SVG Export Plug-In . SVG Version: 6.00 Build 0)  -->
<svg version="1.1" id="Layer_1" xmlns="http://www.w3.org/2000/svg" xmlns:xlink="http://www.w3.org/1999/xlink" x="0px" y="0px"
	 viewBox="0 0 682.3 761.9" style="enable-background:new 0 0 682.3 761.9;" xml:space="preserve">
<style type="text/css">
	.st0{fill:#004D71;}
	.st1{fill:#4AA851;}
	.st2{fill-rule:evenodd;clip-rule:evenodd;fill:#004D71;}
	.st3{fill-rule:evenodd;clip-rule:evenodd;fill:#4AA851;}
</style>
<g>
	<g>
		<g>
			<path class="st0" d="M58.4,369.5c-3.9-1.8-8.5-2.9-14-3.3H29.5c-5.5,0.3-10.2,1.4-14,3.3c-9.3,4.4-14,12.1-14,23.1
				s4.7,18.7,14,23.1c3.9,1.8,8.5,2.9,14,3.3h42.9v-26.4C72.4,381.6,67.7,373.9,58.4,369.5z M55.6,412.4H29.5
				c-7.5-1-11.2-7.6-11.2-19.9c0-12.2,3.7-18.8,11.2-19.8h14.8c7.5,1,11.2,7.6,11.2,19.8V412.4z"/>
			<path class="st0" d="M22.8,359.7c2.3,0,4.3-0.9,5.9-2.7c1.6-1.8,2.5-3.9,2.5-6.4c0-2.5-0.8-4.7-2.5-6.5c-1.6-1.8-3.6-2.7-5.9-2.7
				c-2.3,0-4.3,0.9-6,2.7c-1.6,1.8-2.5,3.9-2.5,6.5c0,2.5,0.8,4.6,2.5,6.4C18.5,358.8,20.5,359.7,22.8,359.7z"/>
			<path class="st0" d="M42.1,359.7c2.3,0,4.3-0.9,5.9-2.7c1.6-1.8,2.5-3.9,2.5-6.4c0-2.5-0.8-4.7-2.5-6.5c-1.6-1.8-3.6-2.7-5.9-2.7
				c-2.3,0-4.3,0.9-6,2.7c-1.6,1.8-2.5,3.9-2.5,6.5c0,2.5,0.8,4.6,2.5,6.4C37.8,358.8,39.8,359.7,42.1,359.7z"/>
			<path class="st0" d="M178.6,425.7c-2.3,0-4.3,0.9-6,2.7c-1.6,1.8-2.5,3.9-2.5,6.5c0,2.5,0.8,4.6,2.5,6.4c1.6,1.8,3.6,2.7,6,2.7
				c2.3,0,4.3-0.9,5.9-2.7c1.6-1.8,2.5-3.9,2.5-6.4c0-2.5-0.8-4.7-2.5-6.5C182.8,426.6,180.9,425.7,178.6,425.7z"/>
			<path class="st0" d="M272.3,359.7c2.3,0,4.3-0.9,5.9-2.7c1.6-1.8,2.5-3.9,2.5-6.4c0-2.5-0.8-4.7-2.5-6.5
				c-1.6-1.8-3.6-2.7-5.9-2.7c-2.3,0-4.3,0.9-6,2.7c-1.6,1.8-2.5,3.9-2.5,6.5c0,2.5,0.8,4.6,2.5,6.4
				C267.9,358.8,269.9,359.7,272.3,359.7z"/>
			<path class="st0" d="M328.5,337.8c-1.6,1.8-2.4,3.9-2.5,6.4V395c-0.5,10.7-4.6,16.6-12.3,17.5h-8.9h-1.6h-10.4
				c-7.9-0.9-12-7-12.3-18.3l0.1-27.9h-8.4c-2.3,0-4.3,0.9-6,2.6c-1.6,1.8-2.4,3.9-2.5,6.4v17.3c0,12.2-4.1,18.9-12.3,19.9h-14.7
				h-1.6h-12.9v-19.9c0-11-4.7-18.7-14-23.1c-3.9-1.8-8.5-2.9-14-3.3h-33.2v6.6h33.2c7.5,1,11.2,7.6,11.2,19.8v19.9h-45.2h-1.4h2.8
				h-1.1h-0.7h-1.4h-42.9c-7.7-0.9-17.1-6.7-17.6-17.5v-50.8c0-2.5-0.9-4.6-2.5-6.4c-1.6-1.8-3.6-2.6-6-2.6h-8.4v57.4
				c0,11,4.9,18.7,14.6,23.1c4.1,1.8,14.2,2.9,19.9,3.3h42.9h1.4h0.7h1.1h-2.8h1.4h74.9h1.6h14.7c5.7-0.3,10.5-1.4,14.6-3.3
				c2.3-1.1,4.4-2.3,6.1-3.7c1.8,1.4,3.9,2.7,6.2,3.7c4.1,1.8,8.9,2.9,14.6,3.3h10.4h1.6h8.9c5.7-0.3,10.5-1.4,14.6-3.3
				c9.7-4.4,14.6-12.1,14.6-23.1v-57.4h-8.4C332.1,335.2,330.1,336,328.5,337.8z"/>
			<path class="st0" d="M351.9,337.8c-1.6,1.8-2.4,3.9-2.5,6.4v74.7h16.8l0.1-83.7h-8.4C355.6,335.2,353.6,336,351.9,337.8z"/>
			<path class="st0" d="M152.6,239.3h-8.4c-2.3,0-4.3,0.9-6,2.6c-1.6,1.8-2.4,3.9-2.5,6.4v37.3h-11.6v-0.1c-0.3,0-0.5,0.1-0.8,0.1
				h-4.5v-46.3h-8.4c-2.3,0-4.3,0.9-6,2.6c-1.6,1.8-2.4,3.9-2.5,6.4v37.3H85.2v-22.2h0.1v-24h-8.4c-2.3,0-4.3,0.9-6,2.6
				c-1.6,1.8-2.4,3.9-2.5,6.4v43.8c-0.3,11.4-4,17.6-11.2,18.6h-28c-7.5-1-11.2-7.6-11.2-19.9v-26.4H1.1v26.4c0,11,4.7,18.7,14,23.1
				c3.9,1.8,8.5,2.9,14,3.3h28c5.5-0.3,10.2-1.4,14-3.3c9-4.3,13.7-11.5,14-21.8h67.4V239.3z"/>
			<path class="st0" d="M180.8,239.8c-2.3,0-4.3,0.9-6,2.6c-1.6,1.8-2.4,3.9-2.5,6.4l0.3,43.4c0,12.2-3.7,18.8-11.2,19.8h-17.1v6.6
				h17.1c5.5-0.4,10.2-1.5,14-3.4c9.3-4.4,14-12.1,14-23.1l-0.3-52.4H180.8z"/>
			<path class="st0" d="M201.9,217.5c-1.6,1.8-2.4,3.9-2.5,6.4V292h16.8l0.1-77.2h-8.4C205.5,214.8,203.5,215.7,201.9,217.5z"/>
			<path class="st0" d="M353,242.7c-3.9-1.8-8.5-2.9-14-3.3h-14.8c-5.5,0.3-10.2,1.4-14,3.3c-9.3,4.4-14,12.1-14,23.1v19.9h1.7h-1.6
				H281v-19.9c0-11-4.7-18.7-14-23.1c-3.9-1.8-8.5-2.9-14-3.3H225v6.6h27.9c7.5,1,11.2,7.6,11.2,19.8v19.9H225v6.6h71.1h1.6H339
				c5.5-0.3,10.2-1.4,14-3.3c9.3-4.4,14-12.1,14-23.1C367.1,254.7,362.4,247,353,242.7z M339,285.6h-26.1v-19.9
				c0-12.2,3.7-18.8,11.2-19.8H339c7.5,1,11.2,7.6,11.2,19.8C350.2,278,346.5,284.6,339,285.6z"/>
		</g>
		<g>
			<path class="st0" d="M180.9,534.6h27.8h1.4v-39.3c0-4.4-2.6-8.7-7.9-12.9c-2.2-1.5-4.5-2.7-6.9-3.6l0,0c0,0-0.1,0-0.1,0
				c-1.1-0.4-2.2-0.8-3.3-1.1c-4.4-1.3-6.9-1.2-6.9-1.2l-15.1,0l0,0H169l-1.4,0v5.8l1.4,0h13.9c1.4,0,2.1,0.1,2.5,0.3
				c5.7,1.5,8.5,3.8,8.5,7.1v5.2c0,0-3.3-0.2-7.8-0.1h-0.1l0,0c-1.1,0-2.3,0.1-3.5,0.2h-1c-4.1,0.2-6.2,0.4-7.3,0.9l-0.4,0.1
				c-2.2,0.4-4.4,1.2-6.5,2.2c-2.2,0.9-4.2,2.1-5.7,3.5l0,0c-0.5,0.4-1,0.8-1.6,1.3c-3.6,3.6-5.4,7.3-5.4,10.9v1.4
				c0,3.3,1.4,6.6,4.1,10C164.7,531.5,172.3,534.6,180.9,534.6z M170.4,510.8c0-2,0.3-3.8,0.7-4.9c2.1-3.5,6.5-5.2,13.3-5.2h9.4
				v10.6l0.2,17.5l-13.1,0l-1.1-0.2l-0.5,0l-2.8-0.9c-4.1-1.2-6.1-4.2-6.1-9V510.8z"/>
			<path class="st0" d="M26.6,534.6h29.2v-1v-38.3c0-4.4-2.6-8.7-7.9-12.9c-3.5-2.3-7.2-4-11-5c0,0-0.1,0-0.1,0
				c-0.7-0.2-1.5-0.4-2.3-0.5c-0.1,0-0.2,0-0.3,0c-1.6-0.3-3-0.4-3.4-0.4H13.2v5.8l1.4,0h13.9c1.4,0,2.1,0.1,2.5,0.3
				c5.7,1.5,8.5,3.8,8.5,7.1v5.2h-6.9v0h-1.5l-4.2,0.2c-4.1,0.2-6.2,0.4-7.3,0.9l-0.4,0.1c-2.8,0.5-5.6,1.6-8.2,3.2
				c-1.3,0.5-3.1,1.7-5.6,3.9c-3.6,3.6-5.4,7.3-5.4,10.9v1.4c0,3.3,1.4,6.6,4.1,10C10.4,531.5,17.9,534.6,26.6,534.6z M16.1,510.8
				c0-2,0.3-3.8,0.7-4.9c2.1-3.5,6.5-5.2,13.3-5.2h9.4v10.6l0.2,17.5l-13.1,0l-1.1-0.2l-0.5,0l-2.8-0.9c-4.1-1.2-6.1-4.2-6.1-9
				V510.8z"/>
			<path class="st0" d="M198.3,585.7h-2.6c-2.9,0-6.4,0.6-10.6,1.8c-10.4,4.4-15.7,10.3-15.7,17.6v20.3c0,2.2,0.8,4.7,2.7,8
				c6.2,7.4,14.3,11.1,24.1,11.1h2.2c4.2,0,8.7-1,13.4-3c8.6-4.5,13-9.9,13-16.1v-20.6c0-3.2-1.5-6.6-4.6-10.3
				C213.7,588.6,206.4,585.7,198.3,585.7z M208.3,632.6c-2.3,4-5.7,6-10.2,6h-1.8c-1.3,0-2-0.1-2.4-0.3c-5.7-1.5-8.4-3.9-8.4-7.2
				l0-31.9l0.4-2.1c2.5-3.8,6.1-5.7,11.1-5.7l2.6,0.3c6.1,1.4,9,3.8,9,7.3l0,32L208.3,632.6z"/>
			<path class="st0" d="M91.8,534.6h14.9v-52.4l5.2-0.1h3.3c2.4,0,4.4,0.1,5.6,0.3c6.1,1.4,9.1,3.7,9.1,7.2v45l1.4,0h13.5l1.4,0
				v-39.3c0-3.1-1.5-6.5-4.6-10.2c-6.4-5.8-13.7-8.7-22-8.7H90.4v1v57.2h1.1L91.8,534.6z"/>
			<path class="st0" d="M77.7,586c-3.8,0.7-6.6,1.5-8.7,2.5c-8.9,4.4-13.4,10-13.4,16.6v20.3c0,3.3,1.5,6.6,4.5,10.1
				c6.1,6,13.4,9,21.8,9h15.8v-1v-3.9v-1l-15.8,0l-1.7-0.1c-5.7-1.6-8.5-4.1-8.5-7.3V599c0-1.1,0.6-2.5,1.5-3.7
				c3-2.5,5.7-3.7,8.3-3.7l16.3-0.2v-1v-3.8v-1H81.9L77.7,586z"/>
			<path class="st0" d="M153.1,591.5c-6-3.9-12-5.8-17.9-5.8H122v-17c0-2.2-0.8-4.1-2.4-5.7c-1.6-1.6-3.5-2.3-5.7-2.3h-8.1v0v3.8
				v6.4v73.5h0.1H122h0v-52.9h2.6l8.4-0.2c2,0.1,3.5,0.3,4.5,0.6c5.1,1.6,7.6,3.9,7.6,7v45.4h16.1v-39.7
				C161.2,600.1,158.5,595.7,153.1,591.5z"/>
			<path class="st0" d="M261.7,585.7h-2.6c-2.9,0-6.4,0.6-10.6,1.8c-10.4,4.4-15.7,10.3-15.7,17.6v20.3c0,2.2,0.8,4.7,2.7,8
				c6.2,7.4,14.3,11.1,24.1,11.1h2.2c4.2,0,8.7-1,13.4-3c8.6-4.5,13-9.9,13-16.1v-20.6c0-3.2-1.5-6.6-4.6-10.3
				C277.2,588.6,269.9,585.7,261.7,585.7z M271.7,632.6c-2.3,4-5.7,6-10.2,6h-1.8c-1.3,0-2-0.1-2.4-0.3c-5.7-1.5-8.4-3.9-8.4-7.2
				l0-31.9l0.4-2.1c2.5-3.8,6.1-5.7,11.1-5.7l2.6,0.3c6.1,1.4,9,3.8,9,7.3l0,32L271.7,632.6z"/>
			<path class="st0" d="M282.4,534.6h27.8h1.4v-39.3c0-4.4-2.6-8.7-7.9-12.9c-2.2-1.5-4.5-2.7-6.9-3.6l0,0c0,0-0.1,0-0.1,0
				c-1.1-0.4-2.2-0.8-3.3-1.1c-4.4-1.3-6.9-1.2-6.9-1.2l-15.1,0l0,0h-0.9l-1.4,0v5.8l1.4,0h13.9c1.4,0,2.1,0.1,2.5,0.3
				c5.7,1.5,8.5,3.8,8.5,7.1v5.2c0,0-3.3-0.2-7.8-0.1h-0.1l0,0c-1.1,0-2.3,0.1-3.5,0.2h-1c-4.1,0.2-6.2,0.4-7.3,0.9l-0.4,0.1
				c-2.2,0.4-4.4,1.2-6.5,2.2c-2.2,0.9-4.2,2.1-5.7,3.5l0,0c-0.5,0.4-1,0.8-1.6,1.3c-3.6,3.6-5.4,7.3-5.4,10.9v1.4
				c0,3.3,1.4,6.6,4.1,10C266.2,531.5,273.8,534.6,282.4,534.6z M271.9,510.8c0-2,0.3-3.8,0.7-4.9c2.1-3.5,6.5-5.2,13.3-5.2h9.4
				v10.6l0.2,17.5l-13.1,0l-1.1-0.2l-3.3-0.9c-4.1-1.2-6.1-4.2-6.1-9V510.8z"/>
			<path class="st0" d="M30.5,607.3c-11-4.1-13.3-7.1-13.5-8.6c-0.1-0.2-0.1-0.5-0.1-0.7c0-0.7,0.2-1.3,0.7-1.9l0.1-0.2
				c0.1-0.1,0.2-0.2,0.3-0.3c0.3-0.3,0.7-0.7,1.1-1c2.6-2,5.4-3,8.5-3h1.8c2.4,0,4.6,0.6,6.7,1.8l1.7,1.1l0.6-0.4h0l4.9-3.5l-1.5-1
				c-3.7-2.5-8.9-3.8-15.5-3.8h-2.8c-2.9,0-6,0.5-9.3,1.5c-8.8,3.6-13.3,8.7-13.3,14.9v1.1c0,3.6,1.6,6.7,4.6,9.2
				c2.2,2,7.7,4.5,16.7,7.6c6.3,2.2,9.4,5.2,9.4,8.9c-0.3,2.1-0.7,3.1-0.9,3.4c-2.9,4.2-6.9,6.3-12.2,6.3h-1.8
				c-3.4,0-6.8-1.2-10.1-3.5l-0.8-0.6l-5.6,4l1.6,1c5.1,3.3,10.8,4.9,17,4.9H21c4.2,0,8.8-1,13.8-3.1c8.3-4.5,12.5-9.9,12.5-15.9
				v-1.6C47.4,617.5,41.7,611.9,30.5,607.3z"/>
			<path class="st0" d="M350,607.3c-11-4.1-13.3-7.1-13.5-8.6c-0.1-0.2-0.1-0.5-0.1-0.7c0-0.7,0.2-1.3,0.7-1.9l0.1-0.2
				c0.1-0.1,0.2-0.2,0.3-0.3c0.3-0.3,0.7-0.7,1.1-1c2.6-2,5.4-3,8.5-3h1.8c2.4,0,4.6,0.6,6.7,1.8l1.7,1.1l0.6-0.4h0l4.9-3.5l-1.5-1
				c-3.7-2.5-8.9-3.8-15.5-3.8h-2.8c-2.9,0-6,0.5-9.3,1.5c-8.8,3.6-13.3,8.7-13.3,14.9v1.1c0,3.6,1.6,6.7,4.6,9.2
				c2.2,2,7.7,4.5,16.7,7.6c6.3,2.2,9.4,5.2,9.4,8.9c-0.3,2.1-0.7,3.1-0.9,3.4c-2.9,4.2-6.9,6.3-12.2,6.3h-1.8
				c-3.4,0-6.8-1.2-10.1-3.5l-0.8-0.6l-5.6,4l1.6,1c5.1,3.3,10.8,4.9,17,4.9h2.4c4.2,0,8.8-1,13.8-3.1c8.3-4.5,12.5-9.9,12.5-15.9
				v-1.6C366.8,617.5,361.2,611.9,350,607.3z"/>
			<path class="st0" d="M304.2,560.7h-8.1l0.1,83.7h16.1v-75.7c0-2.2-0.8-4.1-2.4-5.7C308.3,561.5,306.4,560.7,304.2,560.7z"/>
			<path class="st0" d="M80.1,534.6v-75c0-2.2-0.8-4.1-2.4-5.6c-1.6-1.5-3.5-2.3-5.8-2.3h-8.1l0.1,82.9H80.1z"/>
			<path class="st0" d="M235.1,556.2c8.4-4.5,12.6-9.8,12.6-15.8v-2.8v-44.4v-8.9c0-2.2-0.8-4.1-2.4-5.6c-1.6-1.5-3.5-2.3-5.8-2.3
				h-8.1l0,16l0,0v52.6c0,0.2,0,0.4,0,0.6c0,0.2,0,0.4,0,0.6v0c0,0,0,0,0,0c0,0.1,0,0.1,0,0.2c0,0.6-0.2,1.3-0.5,1.9
				c-1.1,2.8-4,4.9-7.5,5.1l-7.8,0v6h5.5C225.3,559.3,230,558.3,235.1,556.2z"/>
			<path class="st0" d="M239.2,466.3c2.5,0,4.6-1,6.3-2.9c1.8-1.9,2.6-4.2,2.6-6.9c0-2.7-0.9-5-2.6-6.9c-1.8-1.9-3.9-2.9-6.3-2.9
				c-2.5,0-4.6,1-6.4,2.9c-1.8,1.9-2.6,4.2-2.6,6.9c0,2.7,0.9,4.9,2.6,6.9C234.6,465.4,236.7,466.3,239.2,466.3z"/>
			<path class="st0" d="M359.9,529l-0.2,0c-5.9,0-9.8-0.9-12-2.9c-1.9-1.2-2.9-3.8-2.9-7.6v-36.4h22.1v-5.8h-22.1l-0.1-17.4
				c0-2.2-0.8-4-2.4-5.6c-1.6-1.5-3.5-2.3-5.7-2.3h-8.1l0,15.8l0,0v4.6l0,4.9h-8.6v5.8h8.6v29.6c0,5.7,1.3,10.2,3.9,13.2
				c6.5,6.4,14.2,9.7,22.9,9.7h11.8V529H359.9z"/>
		</g>
		<rect x="2.5" y="434.2" class="st1" width="151.9" height="4.1"/>
		<rect x="199.4" y="434.2" class="st1" width="167.7" height="4.1"/>
	</g>
	<g>
		<g>
			<path class="st2" d="M555.7,169.5c-5.5-9.1-13.7-15.4-22.1-21.9c-8.8,10.2-16.5,19.1-25.1,29.1c12.5,5.1,22.6,15.3,27.6,27.8
				c6.7-8.6,12.6-16.5,18.9-24.1C558.2,176.7,558,173.3,555.7,169.5z"/>
			<path class="st2" d="M553.6,113.5c-5.5-9.1-13.7-15.4-22.1-21.9c-8.8,10.2-16.5,19.1-25.1,29.1c12.5,5.1,22.6,15.3,27.6,27.8
				c6.7-8.6,12.6-16.5,18.9-24.1C556.1,120.6,555.8,117.2,553.6,113.5z"/>
		</g>
		<path class="st0" d="M625.5,267.4c0.3-0.4,0.7-0.8,1-1.2c-0.3,0.6-0.6,1.3-1,1.9c-6,10.6-3.8,18.3,7.4,24.8
			c0.4,0.2,0.8,0.5,1.3,0.7c0-51.8,0-121.9,0-171c-7.3-14-15.9-23.7-23.5-31v192.3C615.4,278.4,620.5,273.1,625.5,267.4z"/>
		<path class="st2" d="M583.2,353.2c-33,74.4-166.7,58.3-150,178.9c33.4-56.3,100.2-72.4,136.7-124.2
			C581,392.4,586.7,374.8,583.2,353.2z"/>
		<path class="st3" d="M647.2,317.4c-6.7-5-13.6-9.8-20.2-15.1c-10.7-8.5-12.3-17.7-5.6-29.6c0.4-0.7,0.8-1.4,1.1-2.2
			c-0.4,0.4-0.7,0.8-1.1,1.3c-11.1,12.7-22.4,23.1-29.4,38.9c-7,15.7-2.9,23.8,10.8,34.3l23.4,17.2c8.4-12,14.5-20.4,23.4-33.5
			C652.4,324.6,651.3,320.5,647.2,317.4z"/>
		<path class="st3" d="M576.1,470c35.2-28.7,56.5-74.1,35.7-117.2c-1.2-2.1-2.4-4-3.6-5.6c14.5,67.9-68.9,100.8-114.6,134.5
			c-47.9,35.4-83.3,82.1-54.1,140.8c11-61.1,57.8-92.3,103.7-127l0,0L576.1,470z"/>
		<path class="st0" d="M562.1,264.5c-4.7-6.6-9.4-13.1-14.1-19.7c-3.6-5-7.2-10-10.8-15.1c-6.8-8.4-5.2-19.9,1.1-28
			c-1-0.7-1.6-1.6-2.4-1.4l0.9-3.3c-15.9,13.6-22.1,26-24.5,34.7c-0.8,2.2-1.3,4.4-1.4,6.8c0,0.3,0,0.7,0.1,1.1
			c-0.2,2.8,0.1,4.5,0.2,4.8c-0.1,0.4-0.3,0.8-0.6,1.2c-2.6,2.2-4.9,4.6-7.2,7.1c-8.3,9.2-17.7,21.3-17.9,34.3
			c-0.2,13.1,5.4,24.1,13.7,33.9c6.1,7.2,13.7,13.5,19.8,20.9c10.4,13.8,9.7,26.3,9.7,26.3l13.9-15.4c15.9-18,33.9-42.1,29.3-67.4
			C570.2,278.2,565.9,270.4,562.1,264.5z M550.4,323.3c-0.4,2.1-0.9,4.2-1.6,5.8c0,0,0-1.7-1-4.7c-0.4-0.8-0.7-1.7-1-2.6
			c-0.7-1.7-1.7-3.6-3.1-5.8c-1.6-2.3-3.3-4.6-5.1-6.8c-5.5-6.9-11.7-13.2-17.6-19.7c-5.2-5.7-10.8-11.5-12-19.5
			c-0.5-3.3-0.4-7.1,1.3-10.1l3.8-6.2c-0.1,0.4,0.2,1.6,0.5,2.7c0.3,0.6,0.4,1.3,0.6,1.8c4.8,11.4,13.3,20.3,21.6,29.3
			c7.7,8.4,14.3,17.6,14.5,28.5l0,0c0,0,0,0.1,0,0.4C551.3,318.7,551,321,550.4,323.3z"/>
		<path class="st0" d="M681.9,486.2v-341c-4.5-41.6-20.5-71.8-47.7-98.1c-3.8-3.9-7.8-7.6-11.9-11.2c-16.7-14.4-35.1-25.4-54.6-32.7
			l-6.2-2.3c-0.2-0.1-0.4-0.2-0.6-0.3l-1.3-0.5C559.3,0,559.1,0,558.8,0c0,0-0.1,0-0.1,0c0,0-0.1,0-0.1,0c-0.2,0-0.5,0-0.7,0.1
			l-1.3,0.5c-0.2,0.1-0.4,0.2-0.5,0.3l-6.2,2.3c-19.5,7.3-37.9,18.3-54.6,32.7c-4.1,3.6-8.1,7.3-11.8,11.1
			c-29.9,28.9-46.3,67.5-48.7,114.8l0.1,26.5c0.1,1.4,0.2,2.8,0.3,4.3v276c0.1-0.3,0.2-0.5,0.2-0.8l0.3-2.2l0,0.9
			c0-1.8,0.7-4,1.8-6.2c4.2-12.6,11.4-23.8,20.9-32.8l-0.5-240.8c-0.7-35.4,2.9-86.6,41.8-123.5c3.3-3.4,6.8-6.7,10.5-9.9
			c14.7-12.7,30.8-22.4,48-28.8l1-0.4l1,0.4c17.1,6.4,33.3,16.1,48,28.8c3.6,3.2,7.2,6.5,10.5,9.9c18.6,17.6,43.1,49.6,41.7,123.4
			l0,2.5l-0.9,234.3l0,0c0,0,0,0.1,0,0.1l-1.2,119.1c0.3,48.9-5.3,96.3-42.2,135.9c48.5-18.2,63.1-61.4,66.7-107L681.9,486.2z"/>
		<path class="st0" d="M632.7,504.1c2.7-19.4,6.5-38.6,9.4-57.9c-6.4-13.5-11-27.9-14-42.5c-2.1,23.5-10.7,44.3-26.1,62.4
			c-23.4,24.9-51.3,41-67.9,70.9c-2.7,5.1-5,10.4-6.9,15.9c-1.8,5.5-3.2,11.3-4,17.3c-0.5,3.5-0.8,7.1-1,10.6
			c-0.2,4.4-0.3,8.7-0.1,13.1c0.2,4.4,0.6,8.7,1.2,13c0.5,4,1.5,8.2,2.7,12.5c1.2,4.2,2.6,8.6,3.6,12.9c0.5-3.1,1.6-9.8,4.1-18.6
			c0.8-2.9,1.8-6.1,3-9.5c2.9-8.4,6.9-17.9,12.3-27.7c2.7-4.9,5.8-9.9,9.3-14.8c15.7-19.4,33.3-37,50.9-54.6
			c1.5,22-4.4,42.5-8.8,64.9c-1.3,5.8-2.8,11.7-4.6,17.4c-1.8,5.7-3.9,11.3-6.5,16.6c-12.2,28.3-38.3,45.9-64.5,43.2
			c-31.3-2-56-27.9-56-59.7c0-3.8,0.5-7.4,1.1-10.9c-6.9,10.9-11.5,23.5-12.7,37.1c-1.5,10.1-0.7,19.6,2.1,28.5
			c0,0,2.1,6.8,5.1,11.7c13.4,24.4,39.3,41,69.1,41c31.2,0,58-18.1,70.8-44.4c2.4-4.3,4.5-8.7,6.2-12.9c0.1-0.1,0.1-0.3,0.2-0.4
			c1.2-3.1,2.4-6.1,3.3-8.9c2.1-7,3.7-14.3,4.9-21.6c0.7-4,1.3-8.1,1.8-12.1c0.7-3.8,1.3-7.7,1.9-11.5c3.3-21.7,5.9-43.4,8.1-65.2
			C631.3,514.6,632,509.4,632.7,504.1z"/>
		
			<rect x="515.2" y="704.5" transform="matrix(0.7071 -0.7071 0.7071 0.7071 -357.1082 594.3517)" class="st2" width="47.5" height="47.5"/>
	</g>
</g>
</svg>
