<?xml version="1.0" encoding="utf-8"?>
<!-- Generator: Adobe Illustrator 28.0.0, SVG Export Plug-In . SVG Version: 6.00 Build 0)  -->
<svg version="1.1" id="Layer_1" xmlns="http://www.w3.org/2000/svg" xmlns:xlink="http://www.w3.org/1999/xlink" x="0px" y="0px"
	 viewBox="0 0 653.1 881.1" style="enable-background:new 0 0 653.1 881.1;" xml:space="preserve">
<style type="text/css">
	.st0{fill:#004D71;}
	.st1{fill:#4EAF52;}
</style>
<g>
	<g>
		<path class="st0" d="M148.7,754.3h-8.3c-1.3,6.3-4.1,11-8.4,14.1c-4.3,3.2-9.7,4.7-16.2,4.7c-4.5,0-8.6-0.8-12.5-2.3
			c-3.8-1.6-7-4.1-9.3-7.6c-2.4-3.5-3.6-8.1-3.6-13.6c0-4.4,0.8-9.1,2.3-14.3h8.5c-1.2,4.5-1.8,8.7-1.8,12.6
			c0,10.9,5.5,16.3,16.5,16.3c5.2,0,9.2-1.4,12-4.2c2.8-2.8,4.2-7.4,4.2-13.8v-47.8h9.2v47h7.5V754.3z"/>
		<path class="st0" d="M171.3,742.7c1.8,1.7,4.7,2.6,8.7,2.6v9c-7.3,0-12.4-2.3-15.2-7c-1.7,2.3-3.9,4-6.6,5.2
			c-2.7,1.2-5.9,1.8-9.5,1.8c-1.4,0-2.6-0.4-3.5-1.3c-0.9-0.9-1.4-2-1.4-3.3c0-1.3,0.5-2.4,1.4-3.2c0.9-0.8,2.1-1.2,3.6-1.2
			c3.7,0,6.4-0.9,8.1-2.6c1.7-1.8,2.6-4.5,2.6-8.3v-15.9h9.2v15.9C168.6,738.2,169.5,740.9,171.3,742.7z M160.8,762.6
			c1,1,1.5,2.3,1.5,3.7c0,1.5-0.5,2.7-1.5,3.7c-1,1-2.3,1.5-3.7,1.5c-1.4,0-2.7-0.5-3.7-1.5c-1-1-1.6-2.3-1.6-3.7
			c0-1.4,0.5-2.7,1.6-3.7c1-1,2.3-1.6,3.7-1.6C158.6,761,159.8,761.6,160.8,762.6z M174.6,762.6c1,1,1.5,2.3,1.5,3.7
			c0,1.5-0.5,2.7-1.5,3.7c-1,1-2.3,1.5-3.7,1.5c-1.4,0-2.7-0.5-3.7-1.5c-1-1-1.6-2.3-1.6-3.7c0-1.4,0.5-2.7,1.6-3.7
			c1-1,2.3-1.6,3.7-1.6C172.3,761,173.5,761.6,174.6,762.6z"/>
		<path class="st0" d="M234.9,745.3v9h-19.7c-2,0-3.6-0.4-4.7-1.3c-1.1-0.9-2.1-2-3.1-3.4c-1,1.4-2,2.6-3.1,3.4
			c-1.1,0.9-2.7,1.3-4.7,1.3H180c-1.4,0-2.6-0.4-3.5-1.3c-0.9-0.9-1.4-2-1.4-3.3c0-1.3,0.5-2.4,1.4-3.2c0.9-0.8,2.1-1.2,3.6-1.2h15
			l-9.2-8.3v-2.6c0-4,1-7.6,2.9-10.9c1.9-3.2,4.5-5.8,7.8-7.6c3.3-1.8,7-2.7,11-2.7s7.7,0.9,11,2.7s5.9,4.4,7.9,7.6
			c1.9,3.2,2.9,6.8,2.9,10.9l-0.1,2.6l-9.2,8.3H234.9z M198.7,725.6c-2.3,2.2-3.6,5-3.8,8.5h-0.1l12.6,11.6l12.6-11.6h-0.1
			c-0.2-3.5-1.5-6.3-3.8-8.5c-2.3-2.2-5.2-3.2-8.7-3.2C204,722.4,201.1,723.5,198.7,725.6z M203.7,707.1c-1-1-1.6-2.3-1.6-3.7
			c0-1.5,0.5-2.7,1.6-3.7c1-1,2.3-1.5,3.7-1.5c1.5,0,2.7,0.5,3.7,1.5c1,1,1.5,2.3,1.5,3.7c0,1.4-0.5,2.7-1.5,3.7
			c-1,1-2.3,1.6-3.7,1.6C206,708.7,204.8,708.1,203.7,707.1z"/>
		<path class="st0" d="M312.6,745.3v9h-22.1c-6.8,0-11.5-2.2-14.2-6.6c-1.5,2.1-3.4,3.8-5.6,4.9c-2.3,1.1-4.8,1.7-7.6,1.7h-28.2
			c-1.5,0-2.7-0.4-3.6-1.3s-1.4-1.9-1.4-3.2s0.5-2.4,1.4-3.2c0.9-0.8,2.1-1.3,3.6-1.3h10.7v-29.6h9.2v29.6h8.3
			c2.4,0,4.3-0.9,5.6-2.7c1.3-1.8,2-4.5,2-8.2v-18.7h9.2v18.7c0,7.3,3,10.9,9.1,10.9h6.9v-32.1h9.2v32.1H312.6z M262.5,705.6
			c-1-1-1.6-2.3-1.6-3.7c0-1.5,0.5-2.7,1.6-3.7c1-1,2.3-1.5,3.7-1.5c1.5,0,2.7,0.5,3.7,1.5c1,1,1.5,2.3,1.5,3.7
			c0,1.4-0.5,2.7-1.5,3.7c-1,1-2.3,1.6-3.7,1.6C264.8,707.1,263.5,706.6,262.5,705.6z M271.7,694.8c-1-1-1.6-2.3-1.6-3.7
			c0-1.5,0.5-2.7,1.6-3.7c1-1,2.3-1.5,3.7-1.5c1.5,0,2.7,0.5,3.7,1.5c1,1,1.5,2.3,1.5,3.7c0,1.4-0.5,2.7-1.5,3.7
			c-1,1-2.3,1.6-3.7,1.6C274,696.4,272.8,695.9,271.7,694.8z M281.1,705.6c-1-1-1.6-2.3-1.6-3.7c0-1.5,0.5-2.7,1.6-3.7
			c1-1,2.3-1.5,3.7-1.5c1.5,0,2.7,0.5,3.7,1.5c1,1,1.5,2.3,1.5,3.7c0,1.4-0.5,2.7-1.5,3.7c-1,1-2.3,1.6-3.7,1.6
			C283.4,707.1,282.1,706.6,281.1,705.6z"/>
		<path class="st0" d="M332.5,718.4v35.8h-19.9c-1.4,0-2.6-0.4-3.5-1.3c-0.9-0.9-1.4-2-1.4-3.3c0-1.3,0.5-2.4,1.4-3.2
			c0.9-0.8,2.1-1.2,3.6-1.2h10.7v-26.8H332.5z M316.8,710.8c-1-1-1.6-2.3-1.6-3.7c0-1.5,0.5-2.7,1.6-3.7c1-1,2.3-1.5,3.7-1.5
			c1.5,0,2.7,0.5,3.7,1.5c1,1,1.5,2.3,1.5,3.7c0,1.4-0.5,2.7-1.5,3.7c-1,1-2.3,1.6-3.7,1.6C319.1,712.3,317.8,711.8,316.8,710.8z
			 M330.5,710.8c-1-1-1.6-2.3-1.6-3.7c0-1.5,0.5-2.7,1.6-3.7c1-1,2.3-1.5,3.7-1.5c1.5,0,2.7,0.5,3.7,1.5c1,1,1.5,2.3,1.5,3.7
			c0,1.4-0.5,2.7-1.5,3.7c-1,1-2.3,1.6-3.7,1.6C332.8,712.3,331.5,711.8,330.5,710.8z"/>
		<path class="st0" d="M429,754.3h-7.7c-0.5,7.5-3.2,13.1-8.2,16.9c-5,3.8-11.9,5.7-20.9,5.7c-5.6,0-10.7-0.9-15.2-2.6
			c-4.5-1.7-8-4.4-10.6-8c-2.6-3.6-3.9-8.2-3.9-13.6c0-2.9,0.4-6.1,1.3-9.8h8.5c-0.5,2.6-0.8,5.1-0.8,7.5c0,5.7,1.7,10.1,5.1,12.9
			c3.4,2.9,8.6,4.3,15.6,4.3c6.6,0,11.5-1,14.6-3.1c3.2-2.1,4.9-5.5,5.3-10.3h-4.2c-6,0-11-0.9-14.8-2.8c-3.8-1.9-6.6-4.3-8.3-7.4
			c-1.7-3-2.6-6.4-2.6-10c0-3.7,0.9-7.1,2.6-10.3c1.8-3.1,4.6-5.7,8.4-7.7c3.9-2,8.8-2.9,14.8-2.9h13.3v32.1h7.6V754.3z
			 M391.3,706.9c-1-1-1.6-2.3-1.6-3.7c0-1.5,0.5-2.7,1.6-3.7c1-1,2.3-1.5,3.7-1.5c1.5,0,2.7,0.5,3.7,1.5c1,1,1.5,2.3,1.5,3.7
			c0,1.4-0.5,2.7-1.5,3.7c-1,1-2.3,1.6-3.7,1.6C393.5,708.4,392.3,707.9,391.3,706.9z M395,742c2.6,2.2,7,3.2,13.1,3.2h4.2v-22.9
			h-4.3c-6,0-10.3,1.1-13,3.3c-2.6,2.2-4,4.9-4,8.2C391,737.1,392.3,739.9,395,742z M405,706.9c-1-1-1.6-2.3-1.6-3.7
			c0-1.5,0.5-2.7,1.6-3.7c1-1,2.3-1.5,3.7-1.5c1.5,0,2.7,0.5,3.7,1.5c1,1,1.5,2.3,1.5,3.7c0,1.4-0.5,2.7-1.5,3.7
			c-1,1-2.3,1.6-3.7,1.6C407.3,708.4,406,707.9,405,706.9z"/>
		<path class="st0" d="M425.3,746.5c0.9-0.8,2.1-1.3,3.6-1.3h15.2v9h-15.2c-1.5,0-2.7-0.4-3.6-1.3c-0.9-0.8-1.4-1.9-1.4-3.2
			S424.4,747.4,425.3,746.5z"/>
		<path class="st0" d="M440.6,746.5c0.9-0.8,2.1-1.3,3.6-1.3h15.2v9h-15.2c-1.5,0-2.7-0.4-3.6-1.3c-0.9-0.8-1.4-1.9-1.4-3.2
			S439.6,747.4,440.6,746.5z"/>
		<path class="st0" d="M479.3,718.4v35.8h-19.9c-1.4,0-2.6-0.4-3.5-1.3c-0.9-0.9-1.4-2-1.4-3.3c0-1.3,0.5-2.4,1.4-3.2
			c0.9-0.8,2.1-1.2,3.6-1.2h10.7v-26.8H479.3z M462.3,770c-1-1-1.6-2.3-1.6-3.7c0-1.4,0.5-2.7,1.6-3.7c1-1,2.3-1.6,3.7-1.6
			c1.5,0,2.7,0.5,3.7,1.6c1,1,1.5,2.3,1.5,3.7c0,1.5-0.5,2.7-1.5,3.7c-1,1-2.3,1.5-3.7,1.5C464.5,771.6,463.3,771.1,462.3,770z
			 M476,770c-1-1-1.6-2.3-1.6-3.7c0-1.4,0.5-2.7,1.6-3.7c1-1,2.3-1.6,3.7-1.6c1.5,0,2.7,0.5,3.7,1.6c1,1,1.5,2.3,1.5,3.7
			c0,1.5-0.5,2.7-1.5,3.7c-1,1-2.3,1.5-3.7,1.5C478.2,771.6,477,771.1,476,770z"/>
		<path class="st0" d="M518.4,745.3v9h-7.5c0,5.6-1.1,9.7-3.2,12.4c-2.1,2.7-5.4,4-9.8,4c-2.5,0-5.3-0.4-8.3-1.2l2-8.5
			c2.2,0.6,4,0.8,5.3,0.8c1.8,0,3-0.6,3.8-1.7s1.1-3.1,1.1-5.9v-35.8h9.2v26.8H518.4z"/>
		<path class="st0" d="M562.7,713.2v41.1h-44.3c-1.5,0-2.7-0.4-3.6-1.2c-0.9-0.8-1.4-1.9-1.4-3.2c0-1.4,0.4-2.5,1.3-3.4
			c0.9-0.8,2.1-1.2,3.6-1.2h8.2c-2.2-3.1-3.4-6.9-3.4-11.3c0-3.7,0.9-7.1,2.6-10.3c1.7-3.1,4.5-5.7,8.4-7.6c3.9-2,8.8-2.9,14.9-2.9
			H562.7z M553.5,722.4H549c-6,0-10.3,1.1-12.8,3.3c-2.6,2.2-3.9,4.9-3.9,8.2c0,3.3,1.3,6,3.9,8.2c2.6,2.1,6.9,3.2,13,3.2h4.4V722.4
			z M539.3,707.1c-1-1-1.6-2.3-1.6-3.7c0-1.5,0.5-2.7,1.6-3.7c1-1,2.3-1.5,3.7-1.5c1.5,0,2.7,0.5,3.7,1.5c1,1,1.5,2.3,1.5,3.7
			c0,1.4-0.5,2.7-1.5,3.7c-1,1-2.3,1.6-3.7,1.6C541.6,708.7,540.4,708.1,539.3,707.1z"/>
		<path class="st0" d="M95.3,859.4c-2.9-1.9-5.2-4.4-6.7-7.5c-1.5-3.1-2.2-6.4-2.2-9.9c0-3.6,0.8-6.9,2.3-10.1
			c1.5-3.2,3.8-5.8,6.8-7.7c3-2,6.6-2.9,10.8-2.9c4.2,0,7.7,1,10.7,2.9c3,1.9,5.2,4.5,6.7,7.6c1.5,3.2,2.2,6.5,2.2,10.1
			c0,3.6-0.7,6.9-2.2,10c-1.5,3.1-3.7,5.7-6.7,7.6c-3,1.9-6.6,2.9-10.8,2.9C101.9,862.3,98.3,861.3,95.3,859.4z M96.2,815.1
			c-1-1-1.6-2.3-1.6-3.7c0-1.5,0.5-2.7,1.6-3.7c1-1,2.3-1.5,3.7-1.5c1.5,0,2.7,0.5,3.7,1.5c1,1,1.5,2.3,1.5,3.7
			c0,1.4-0.5,2.7-1.5,3.7c-1,1-2.3,1.6-3.7,1.6C98.5,816.7,97.3,816.2,96.2,815.1z M114,850c1.8-2.2,2.7-4.8,2.7-7.9
			c0-2-0.4-3.9-1.3-5.7c-0.8-1.8-2.1-3.3-3.7-4.4c-1.6-1.1-3.5-1.7-5.8-1.7c-2.2,0-4.2,0.5-5.8,1.6c-1.6,1.1-2.8,2.5-3.6,4.3
			c-0.8,1.8-1.2,3.6-1.2,5.6s0.4,3.8,1.2,5.6c0.8,1.7,2,3.1,3.7,4.2c1.6,1.1,3.6,1.6,5.9,1.6C109.6,853.3,112.2,852.2,114,850z
			 M109.9,815.1c-1-1-1.6-2.3-1.6-3.7c0-1.5,0.5-2.7,1.6-3.7c1-1,2.3-1.5,3.7-1.5c1.5,0,2.7,0.5,3.7,1.5c1,1,1.5,2.3,1.5,3.7
			c0,1.4-0.5,2.7-1.5,3.7c-1,1-2.3,1.6-3.7,1.6C112.2,816.7,111,816.2,109.9,815.1z"/>
		<path class="st0" d="M156.1,853.3v9h-19.8v-56h9.2v47H156.1z"/>
		<path class="st0" d="M152.5,854.5c0.9-0.8,2.1-1.3,3.6-1.3h15.2v9h-15.2c-1.5,0-2.7-0.4-3.6-1.3c-0.9-0.8-1.4-1.9-1.4-3.2
			S151.6,855.4,152.5,854.5z"/>
		<path class="st0" d="M221.2,853.3v9h-49.9c-1.3,0-2.4-0.5-3.3-1.4c-0.9-0.9-1.4-2-1.4-3.3c0-1.2,0.4-2.2,1.3-3
			c0.9-0.8,2-1.2,3.3-1.3h33.4c-0.4-1.2-0.7-2.7-1-4.4c-0.7-4.2-1.6-7.4-2.8-9.8c-1.1-2.3-2.7-4.1-4.6-5.4
			c-3.4-2.2-7.5-3.3-12.5-3.3c-2.7,0-5.7,0.4-8.9,1.1l-0.8-9.1c3.7-0.8,7.2-1.1,10.4-1.1c6.7,0,12.4,1.7,17.3,5
			c2.8,1.9,5.2,4.6,7,8.1s3.2,7.8,4.1,13c0.3,1.5,0.5,2.6,0.8,3.4c0.3,0.8,0.9,1.4,1.7,1.9c0.8,0.5,2.1,0.7,3.9,0.7H221.2z
			 M198.6,870.7c1,1,1.5,2.3,1.5,3.7c0,1.5-0.5,2.7-1.5,3.7c-1,1-2.3,1.5-3.7,1.5c-1.4,0-2.7-0.5-3.7-1.5c-1-1-1.6-2.3-1.6-3.7
			c0-1.4,0.5-2.7,1.6-3.7c1-1,2.3-1.6,3.7-1.6C196.3,869.1,197.6,869.6,198.6,870.7z"/>
		<path class="st0" d="M243.8,850.7c1.8,1.7,4.7,2.6,8.7,2.6v9c-7.3,0-12.4-2.3-15.2-7c-1.7,2.3-3.9,4-6.6,5.2
			c-2.7,1.2-5.9,1.8-9.5,1.8c-1.4,0-2.6-0.4-3.5-1.3c-0.9-0.9-1.4-2-1.4-3.3c0-1.3,0.5-2.4,1.4-3.2c0.9-0.8,2.1-1.2,3.6-1.2
			c3.7,0,6.4-0.9,8.1-2.6c1.7-1.8,2.6-4.5,2.6-8.3v-15.9h9.2v15.9C241.1,846.2,242,848.9,243.8,850.7z M232.8,818
			c-1-1-1.6-2.3-1.6-3.7c0-1.5,0.5-2.7,1.6-3.7c1-1,2.3-1.5,3.7-1.5c1.5,0,2.7,0.5,3.7,1.5c1,1,1.5,2.3,1.5,3.7
			c0,1.4-0.5,2.7-1.5,3.7c-1,1-2.3,1.6-3.7,1.6C235,819.6,233.8,819.1,232.8,818z"/>
		<path class="st0" d="M272.4,806.3v56h-19.9c-1.5,0-2.7-0.4-3.6-1.3c-0.9-0.8-1.4-1.9-1.4-3.2s0.5-2.4,1.4-3.2
			c0.9-0.8,2.1-1.3,3.6-1.3h10.7v-47H272.4z"/>
		<path class="st0" d="M282.7,806.3h9.2v56h-9.2V806.3z"/>
		<path class="st0" d="M418.7,821.2v41.1h-14.6c-6.7,0-11.4-2.2-14.2-6.6c-1.4,2.1-3.2,3.8-5.4,4.9c-2.2,1.1-4.5,1.7-7.1,1.7h-9.8
			c-1.3,6.3-4.1,11-8.4,14.1c-4.3,3.2-9.7,4.7-16.2,4.7c-4.5,0-8.6-0.8-12.5-2.3c-3.8-1.6-7-4.1-9.3-7.6c-2.4-3.5-3.6-8.1-3.6-13.6
			c0-4.4,0.8-9.1,2.3-14.3h8.5c-1.2,4.5-1.8,8.7-1.8,12.6c0,10.9,5.5,16.3,16.5,16.3c5.2,0,9.2-1.4,12-4.2c2.8-2.8,4.2-7.4,4.2-13.8
			v-30.4h9.2v29.6h7.5c2.8,0,4.9-0.9,6.3-2.7c1.4-1.8,2.1-4.5,2.1-8.2v-18.7h9.2v18.7c0,7.3,3,10.9,9.1,10.9h6.9v-32.1H418.7z"/>
		<path class="st0" d="M431.1,869.9c1.8,0,3-0.6,3.8-1.7c0.7-1.1,1.1-3.1,1.1-5.9v-35.8h9.2v35.8c0,5.6-1.1,9.7-3.2,12.4
			c-2.1,2.7-5.4,4-9.8,4c-2.5,0-5.3-0.4-8.3-1.2l2-8.5C428.1,869.6,429.8,869.9,431.1,869.9z"/>
		<path class="st0" d="M454.4,806.3h9.2v56h-9.2V806.3z"/>
		<path class="st0" d="M519.4,853.3v9H474v-9h28.7V845c0-5.3-1.5-9.1-4.5-11.3c-3-2.2-7.9-3.3-14.7-3.3h-5.2v-9.2h5.3
			c8.9,0,15.8,2,20.8,5.9c5,4,7.5,9.8,7.5,17.6v8.5H519.4z"/>
		<path class="st0" d="M557.1,823.9c3,1.8,5.3,4.3,7.1,7.4c1.7,3.2,2.6,6.7,2.6,10.5c0,4.2-0.9,7.8-2.6,10.9c-1.8,3.1-4.1,5.5-7,7.2
			c-2.9,1.7-6,2.5-9.5,2.5c-2.6,0-5.3-0.5-7.9-1.6c-2.6-1.1-5-2.7-7.2-4.8c-1.4,2-3.3,3.6-5.5,4.7c-2.3,1.1-4.8,1.6-7.7,1.6
			c-1.4,0-2.6-0.4-3.5-1.3c-0.9-0.9-1.4-2-1.4-3.3c0-1.3,0.5-2.4,1.4-3.2c0.9-0.8,2.1-1.2,3.6-1.2c1.6,0,2.9-0.3,4.1-1
			c1.2-0.7,2-1.6,2.5-2.9c0.4-1,0.7-2,1-3c0.3-1,0.5-2,0.7-3c0.3-1.6,0.7-3.2,1.1-4.8c1.4-5.6,3.6-9.9,6.8-12.9
			c3.2-3,7-4.5,11.6-4.5C550.8,821.2,554.1,822.1,557.1,823.9z M554.5,850.3c1.9-2.1,2.9-4.9,2.9-8.5c0-3.4-1-6.1-2.9-8.2
			c-1.9-2.1-4.4-3.2-7.4-3.2c-2.3,0-4.3,0.8-5.8,2.4c-1.5,1.6-2.7,4-3.6,7.3c-0.6,2.2-1.2,4.7-1.7,7.4c1.7,2,3.5,3.5,5.5,4.5
			c2,1,3.9,1.5,5.8,1.5C550.2,853.4,552.6,852.4,554.5,850.3z"/>
	</g>
	<g>
		<path class="st0" d="M485.3,376.9c-0.5,0-1.1,0-1.6-0.1l-69.1-9.9c-6.4-0.9-10.8-6.8-9.9-13.2v0l6.5-45.3
			c0.9-6.4-3.5-12.3-9.9-13.2c-3-0.4-6.1,0.4-8.6,2.2L356,325c-5.1,3.9-12.4,2.8-16.3-2.3l-41.9-55.9c-3.9-5.1-2.8-12.4,2.3-16.3
			l36.6-27.4c5.1-3.9,6.2-11.1,2.3-16.3c-1.9-2.5-4.6-4.1-7.7-4.5l-45.3-6.5c-6.4-0.9-10.8-6.8-9.9-13.2l0,0l9.9-69.1
			c0.9-6.4,6.8-10.8,13.2-9.9l0,0l45.3,6.5c4.7,0.7,9.3-1.5,11.6-5.6c2.5-4,2.2-9.2-0.7-12.9L328.1,55c-3.9-5.1-2.8-12.4,2.3-16.3
			l0,0l6.6-4.9c-10.7-0.5-21.4-0.2-32,0.9C190.1,47.8,107.6,151.6,120.7,266.5c7.1,62.6,42.1,118.7,95.2,152.6
			c19.4,12,31.3,33.1,31.6,55.9v47c0,19.3,15.6,34.9,34.9,34.9h93.1c19.3,0,34.9-15.6,34.9-34.9V476c0.3-23.3,12.4-44.9,32.2-57.3
			c18.3-11.9,34.7-26.6,48.6-43.5C489.3,376.3,487.3,376.8,485.3,376.9L485.3,376.9z M282.3,615.1v11.6c0,12.9,10.4,23.3,23.3,23.3
			h46.5c12.9,0,23.3-10.4,23.3-23.3v-11.6H282.3L282.3,615.1z"/>
		<path class="st1" d="M209.6,428.9c-6.9-4.5-13.5-9.3-19.9-14.5c-17.6,34.2-59.5,47.7-93.7,30.1c-23.3-12-37.9-36-37.8-62.1
			c0.1-35.2,26.3-64.8,61.2-69.2c-4.3-12.8-7.4-26-9.2-39.5l-2,9.7c-2.6,12.6-15,20.6-27.6,18c-3-0.6-5.9-1.9-8.4-3.6l-24.2-16.6
			l-21.2,21.2l16.7,24.2c7.3,10.6,4.6,25.1-6,32.4c-2.5,1.7-5.4,3-8.4,3.6l-29,6.1v27.6l29,6.1c12.6,2.6,20.6,15,18,27.6
			c-0.6,3-1.9,5.9-3.6,8.4l-16.7,24.1l21.2,21.2L72.1,467c10.6-7.3,25.1-4.6,32.4,6c1.7,2.5,3,5.4,3.6,8.4l6.1,29.1h27.7l6.1-29
			c2.6-12.6,15-20.6,27.6-18c3,0.6,5.9,1.9,8.4,3.6l24.2,16.6l25-25C228.8,446.4,220.6,435.9,209.6,428.9L209.6,428.9z M282.3,568.6
			h93.1v23.3h-93.1L282.3,568.6z M619.4,172.9c-19.1-2.7-32.3-20.4-29.6-39.5c1.3-9.2,6.2-17.4,13.6-23l27.3-20.5l-27.9-37.2
			l-27.3,20.4c-15.4,11.6-37.3,8.5-48.9-7c-5.5-7.4-7.9-16.7-6.6-25.8l4.8-33.7L478.7,0l-4.8,33.7c-2.7,19.1-20.4,32.3-39.5,29.6
			c-9.2-1.3-17.4-6.2-23-13.6L391,22.4l-37.2,27.9l20.4,27.3c11.6,15.4,8.4,37.3-7,48.9c-7.4,5.6-16.7,7.9-25.9,6.6l-33.7-4.8
			l-6.6,46.1l33.7,4.8c19.1,2.7,32.3,20.4,29.6,39.5c-1.3,9.2-6.2,17.4-13.6,23l-27.3,20.5l27.9,37.2l27.3-20.4
			c15.4-11.6,37.3-8.4,48.9,7c5.6,7.4,7.9,16.7,6.6,25.9l-4.8,33.7l46.2,6.6l4.8-33.7c2.7-19.1,20.4-32.3,39.5-29.6
			c9.2,1.3,17.4,6.2,23,13.6l20.5,27.3l37.2-27.9l-20.5-27.3c-11.6-15.4-8.4-37.3,7-48.9c7.4-5.5,16.7-7.9,25.8-6.6l33.7,4.8
			l6.6-46.1L619.4,172.9z M477.1,245.8c-38.6,0-69.8-31.3-69.8-69.8s31.3-69.8,69.8-69.8c38.6,0,69.8,31.3,69.8,69.8
			C546.8,214.6,515.6,245.8,477.1,245.8z"/>
	</g>
</g>
</svg>
